<?xml version="1.0" encoding="UTF-8" standalone="no"?>
<svg
   xmlns:dc="http://purl.org/dc/elements/1.1/"
   xmlns:cc="http://creativecommons.org/ns#"
   xmlns:rdf="http://www.w3.org/1999/02/22-rdf-syntax-ns#"
   xmlns:svg="http://www.w3.org/2000/svg"
   xmlns="http://www.w3.org/2000/svg"
   viewBox="0 0 518.65332 666.66669"
   height="666.66669"
   width="518.65332"
   xml:space="preserve"
   id="svg2"
   version="1.1"><metadata
     id="metadata8"><rdf:RDF><cc:Work
         rdf:about=""><dc:format>image/svg+xml</dc:format><dc:type
           rdf:resource="http://purl.org/dc/dcmitype/StillImage" /></cc:Work></rdf:RDF></metadata><defs
     id="defs6" /><g
     transform="matrix(1.3333333,0,0,-1.3333333,0,666.66667)"
     id="g10"><g
       transform="scale(0.1)"
       id="g12"><path
         id="path14"
         style="fill:#c3c3c3;fill-opacity:1;fill-rule:nonzero;stroke:none"
         d="m 3822.33,844.102 h 0.01 c -35.28,35.179 -65.24,55.949 -91.6,63.507 -26.73,7.68 -50.6,1.961 -69.04,-16.527 l -17.35,-17.32 c -181.71,-181.723 -393.3,-324.391 -628.9,-424.043 -243.81,-103.117 -502.88,-155.41 -770.01,-155.41 -267.14,0 -526.2,52.293 -770,155.41 -235.58,99.64 -447.16,242.301 -628.874,424.031 -189.312,189.31 -331.976,400.88 -424.007,628.84 -89.739,222.27 -119.047,389.45 -128.676,444.38 -0.903,5.15 -1.617,9.22 -2.176,12.16 -12.352,64.69 -71.891,69.21 -157.453,56.12 -35.586,-5.44 -143.87509,-22.01 -133.5665,-99.92 l 0.25,-1.78 C 29.6055,1733.2 80.2539,1556.36 151.477,1387.96 265.957,1117.3 429.805,874.281 638.457,665.641 847.117,456.969 1090.15,293.129 1360.8,178.672 1641,60.1094 1938.64,0 2245.44,0 c 306.64,0 604.29,60.1406 884.65,178.762 270.56,114.418 513.59,278.289 722.35,487.058 0.48,0.481 11.88,11.789 18.12,18.59 22.97,25.012 42.96,68.77 -48.23,159.692 z M 2242.61,4464.29 c -293.16,0 -605.01,-59.18 -834.13,-158.29 -24.49,-9.59 -39.13,-29.27 -42.35,-56.9 -3.01,-26.07 4.03,-60.47 21.55,-105.23 14.21,-36.31 51.95,-132.76 125.02,-104.89 234.49,89.45 493.71,138.71 729.91,138.71 267.65,0 527.22,-52.39 771.52,-155.71 194.11,-82.12 377.27,-200.74 576.4,-373.29 14.52,-12.59 29.93,-18.97 45.8,-18.97 38.82,0 76.06,38.14 107.91,73.88 53.17,59.65 89.69,109.23 37.3,158.85 -190.16,180.14 -398.54,314.71 -655.78,423.49 -279.76,118.35 -576.9,178.35 -883.15,178.35 z M 1842.95,1985.54 c 0.35,-33.13 30.67,-62.18 48.78,-79.54 l 5.69,-5.49 c 31.06,-30.55 60.65,-46.04 87.93,-46.04 22.59,0 36.51,10.68 41.44,15.27 13.68,12.71 168.45,169.53 183.22,184.49 l 172.6,-172.04 c 15.98,-18 33.35,-27.02 53.59,-27.58 27.56,0 57.6,16.39 89.27,48.71 74.48,76.05 37.21,117.06 19.19,136.88 l -174.88,174.94 182.38,183.67 c 39.99,43.28 4.68,89.27 -30.55,124.5 -51.15,51.16 -100.5,64.36 -132.14,35.21 l -181.34,-181.66 -183.39,183.44 c -9.72,9.31 -21.98,14.23 -35.45,14.23 -24.44,0 -53.35,-16.52 -85.95,-49.12 -56.4,-56.39 -68.49,-95.37 -39.14,-126.47 l 183.44,-182.88 -182.36,-182.68 c -15,-14.98 -22.51,-31.07 -22.33,-47.84 z M 680.035,1714.7 c 1.094,-3.03 27,-74.66 42.008,-110.16 82.391,-194.81 200.375,-369.8 350.687,-520.12 150.21,-150.19 325.22,-268.17 520.19,-350.631 201.83,-85.379 416.18,-128.668 637.1,-128.668 220.88,0 435.23,43.301 637.1,128.688 194.89,82.429 369.91,200.421 520.18,350.691 150.26,150.24 268.24,325.26 350.69,520.17 85.38,201.86 128.67,416.22 128.67,637.11 0,220.9 -43.29,435.26 -128.67,637.1 -82.43,194.9 -200.42,369.92 -350.69,520.19 -150.22,150.23 -325.24,268.22 -520.18,350.69 -201.85,85.38 -416.2,128.67 -637.1,128.67 -223.52,0 -446.86,-44.49 -645.89,-128.67 -159.09,-67.3 -428.37,-240.56 -585.989,-403.12 l -0.93,-0.95 v 1346.94 l 2262.599,0.02 c 82.34,0.9 82.34,115.89 82.34,153.67 0,37.77 0,152.72 -82.59,153.66 L 813.09,5000 c -66.602,0 -107.828,-55.4 -107.828,-106.73 V 2997.38 c 0,-61.16 76.191,-105.33 146.98,-120.47 138.25,-29.53 170.188,14.66 204.048,61.42 l 4.49,6.2 c 51.69,76.79 213.22,239.36 214.84,240.98 252.08,252.08 589.14,390.9 949.07,390.9 358.21,0 694.31,-138.82 946.39,-390.9 252.93,-252.95 392.23,-588.1 392.23,-943.73 0,-356.92 -138.58,-692.06 -390.23,-943.71 -248.43,-248.43 -595.49,-390.91 -952.17,-390.91 -241.59,0 -474.79,64.371 -674.55,186.19 l 0.85,1152.78 c 0,153.71 66.71,320.8 178.43,446.98 127.74,144.25 303.78,223.69 495.71,223.69 185.87,0 359.46,-70.56 488.81,-198.69 128.42,-127.22 199.14,-296.71 199.14,-477.26 0,-385.23 -302.92,-686.99 -689.62,-686.99 -74.55,0 -210.07,32.94 -215.64,34.3 -78.08,23.25 -111.3,-85.15 -122.23,-120.88 -42.03,-137.41 21.13,-164.65 34.22,-168.72 124.44,-38.62 206.04,-45.94 313.08,-45.94 545.91,0 990.03,444.35 990.03,990.51 0,541.78 -443.85,982.56 -989.42,982.56 -267.17,0 -518.16,-102.13 -706.72,-287.57 -179.57,-176.61 -282.57,-412.09 -282.57,-646.01 l -0.1,-5.81 c -0.87,-29.17 -1.44,-720.24 -1.61,-947.03 l -1.02,1.13 c -102.61,113.62 -204.03,287.54 -271.27,465.23 -26.364,69.64 -85.895,57.31 -167.145,32.29 -35.48,-10.93 -143.465,-44.19 -119.582,-122.25 l 0.332,-0.97" /></g></g></svg>