<?xml version="1.0" encoding="utf-8"?>
<!-- Generator: Adobe Illustrator 20.0.0, SVG Export Plug-In . SVG Version: 6.00 Build 0)  -->

<svg version="1.1" id="in_Blud" xmlns="http://www.w3.org/2000/svg" xmlns:xlink="http://www.w3.org/1999/xlink" x="0px"
	 y="0px" viewBox="0 0 512 512" style="enable-background:new 0 0 375 304.7;" xml:space="preserve">
<style type="text/css">
	.st0{fill:#FFFFFF;}
</style>
	<path class="st0" d="M344.5 156.9c-38.7 0-72.1 22.1-88.5 54.4 -16.4-32.3-49.8-54.4-88.5-54.4 -54.8 0-99.1 44.4-99.1 99.1 0 54.8 44.4 99.1 99.1 99.1 38.6 0 72.1-22.1 88.5-54.4 16.4 32.3 49.8 54.4 88.5 54.4 54.8 0 99.1-44.4 99.1-99.1C443.6 201.2 399.2 156.9 344.5 156.9zM344.5 328.7c-40.1 0-72.7-32.6-72.7-72.7s32.6-72.7 72.7-72.7 72.7 32.6 72.7 72.7C417.2 296.1 384.6 328.7 344.5 328.7z"></path>
</svg>