<svg xmlns="http://www.w3.org/2000/svg" width="49.92" height="49.92" viewBox="0 0 1200 1200">
  <metadata><?xpacket begin="﻿" id="W5M0MpCehiHzreSzNTczkc9d"?>
<x:xmpmeta xmlns:x="adobe:ns:meta/" x:xmptk="Adobe XMP Core 5.6-c138 79.159824, 2016/09/14-01:09:01        ">
   <rdf:RDF xmlns:rdf="http://www.w3.org/1999/02/22-rdf-syntax-ns#">
      <rdf:Description rdf:about=""/>
   </rdf:RDF>
</x:xmpmeta>
                                                                                                    
                                                                                                    
                                                                                                    
                                                                                                    
                                                                                                    
                                                                                                    
                                                                                                    
                                                                                                    
                                                                                                    
                                                                                                    
                                                                                                    
                                                                                                    
                                                                                                    
                                                                                                    
                                                                                                    
                                                                                                    
                                                                                                    
                                                                                                    
                                                                                                    
                                                                                                    
                           
<?xpacket end="w"?></metadata>
<defs>
    <style>
      .cls-1 {
        fill: #fff;
        fill-rule: evenodd;
      }
    </style>
  </defs>
  <path id="Rectangle_1_copy_2" data-name="Rectangle 1 copy 2" class="cls-1" d="M0.5-.539H1200.83V1200.05H0.5V-0.539ZM722.9-102.59L772.286-152,1331,407.04l-49.38,49.413L722.9-102.59m223.037,732.8S915.316,655.872,834.2,739.22s-270.978,313.06-270.978,313.06,188.5-171.557,335.231-273.927S1219.71,568.712,1219.71,568.712l-5.59,50.314S1072.93,692.324,918,811.9,465.441,1206.02,465.441,1206.02l-64.253,2.8s98.873-126.36,201.139-245.982S870.512,658.159,870.512,658.159Zm262.6,25.157s-22.84,24.96-25.15,30.747-1.68,10.444,5.59,11.181,22.35-8.386,22.35-8.386Zm-522.4,19.566c8.626-6,49.231-39.381,69.839-61.494s59.228-69.223,64.253-75.471,9.759-12.327,16.762-11.181,18.818,9.456,16.761,19.566-14.017,80.027-25.142,100.628c0,0,60.48-14.784,86.6-30.747,0,0,10.16-4.556,30.73-19.567,0,0,21.435-19.695,41.9-36.337s36.857-27.139,44.7-30.748,20.78,0.614,25.14,5.591,6.2,14.8-2.79,22.361-47.66,44.705-114.538,78.266-122.918,47.519-122.918,47.519-9.336,22-13.968,27.952-19.82,18.89-25.143,16.771-10.342-7.2-16.761-16.771-16.746-11.306-19.555-16.771-5.588-22.362-5.588-22.362-13.2,14.847-25.142,22.362-23.792,9.1-27.936,2.8S677.508,680.93,686.135,674.93Zm-139.68-27.952c7.162-11.486,16.671-27.479,33.523-41.928s22.625-19.13,27.936-22.362,12.509-5.15,19.555-2.795a40.347,40.347,0,0,1,11.175,5.59s13.515-11.44,27.936-16.771,36.529-8.328,44.7-5.59,8.165,3.442,8.381,8.385-3.8,8.02-11.175,8.386-21.974,1.329-36.316,8.386-48.531,39.984-55.872,50.314-14.088,20.467-16.761,25.157-6.117,7.55-11.175,5.59-10.645-5.416-8.381-11.181,10.182-26.508,22.349-39.133c0,0-15.785,11.219-22.349,19.567s-13.447,17.9-16.761,22.361-12.8,8.812-16.762,5.591S539.293,658.465,546.455,646.978ZM471.028,691.7s25.9-24.819,36.317-33.543,25.779-24.105,16.761-30.747-21.461-14.872-44.7-2.8S424.588,666,415.156,686.111s-8.879,36.494,11.175,39.133,40.158-5.263,50.284-13.976,14.478-14.5,16.762-19.566S481.479,686.744,471.028,691.7ZM35.228,1220s123.507-217.04,184.377-315.862S416.63,560.468,459.854,479.265,548.943,315.9,560.423,294.781s17.275-21.63,39.111-22.362,11.228,25.19,0,47.519S538.456,464.405,504.551,515.6,353.85,767.085,345.317,781.149s-9.134,28.5-22.349,22.361c0,0-43.137,65.251-75.427,120.2s-140.52,224.4-184.377,285.115ZM278.27,498.832s24.848,53.087,41.9,131.375,40.813,235.016,44.7,262.75,15.67,44.025,19.555,2.795S370.8,727.526,359.284,669.34s-58.665-190.075-58.665-190.075ZM-31.818,387.023s212.04-169.667,315.676-251.569S571.292-62.242,582.772,9.669s-73.223,221.2-209.52,399.716S87.739,822.749,68.751,859.415s-28.787,40.508-44.7,27.952-7.235-41.2,8.381-58.7,85.183-143.986,117.331-204.05S250.291,432.882,261.509,412.18s24.618-61.866-25.143-2.8-63.073,76.29-78.22,92.242-30.73,0-30.73,0,1.179-14.173,13.968-30.747,70.877-78.594,94.982-100.628,55.578-63.438,75.427-41.928,0.328,49.2-8.38,69.88-50.285,100.628-50.285,100.628S338.2,384.064,373.252,333.914,519.458,115.2,529.694,85.14,580.338-5.792,496.17,48.8,317.457,162.1,191.669,264.034-42.993,451.313-42.993,451.313Z"/>
</svg>
